<svg fill="none" height="24" viewBox="0 0 24 24" width="24" xmlns="http://www.w3.org/2000/svg"><g stroke="#141b34"><path d="m22 12h-.009m-3.982 0h-.009" stroke-linecap="round" stroke-linejoin="round" stroke-width="2"/><path d="m10.5119 7.5h-.009" stroke-linecap="round" stroke-linejoin="round" stroke-width="2"/><path d="m2 12c0 4.9706 3.94274 9 8.8064 9 2.4669 0 4.6969-1.0366 6.2956-2.7069.6406-.6693.9609-1.0039.8877-1.5513-.0731-.5473-.5369-.821-1.4647-1.3683l-.7579-.4471c-2.2034-1.2998-3.3051-1.9497-3.3051-2.9264s1.1017-1.6266 3.3051-2.92642l.7579-.44711c.9278-.54728 1.3916-.82092 1.4647-1.3683.0732-.54739-.2471-.882-.8877-1.55122-1.5987-1.6703-3.8287-2.70695-6.2956-2.70695-4.86366 0-8.8064 4.02944-8.8064 9z" stroke-width="1.5"/></g></svg>